<?xml version="1.0" encoding="UTF-8"?>
<svg xmlns="http://www.w3.org/2000/svg" version="1.1" viewBox="0 0 416.01 72.83">
  <defs>
    <style>
      .cls-1 {
        fill: #053e44;
      }
    </style>
  </defs>
  <!-- Generator: Adobe Illustrator 28.6.0, SVG Export Plug-In . SVG Version: 1.2.0 Build 709)  -->
  <g>
    <g id="Calque_1">
      <path class="cls-1" d="M166.52,12.51l.79,49.14c.01.7.58,1.26,1.28,1.26l30.06.16c.71,0,1.28-.56,1.29-1.27l.16-12.74c0-.72-.58-1.31-1.31-1.3l-16.55.27c-.71.01-1.3-.56-1.31-1.27l-.09-9.89c0-.71.56-1.29,1.26-1.3l7.61-.12c.53,0,1-.34,1.18-.84h0c.25-.66.98-1,1.64-.76l6.29,2.29c.62.23,1.32-.06,1.6-.66l3.65-7.78c.31-.66,0-1.45-.67-1.73l-35.12-14.67c-.85-.36-1.79.28-1.78,1.21Z"/>
      <path class="cls-1" d="M371.85,12.51l.79,49.14c.01.7.58,1.26,1.28,1.26l30.06.16c.71,0,1.28-.56,1.29-1.27l.16-12.74c0-.72-.58-1.31-1.31-1.3l-16.55.27c-.71.01-1.3-.56-1.31-1.27l-.09-9.89c0-.71.56-1.29,1.26-1.3l7.61-.12c.53,0,1-.34,1.18-.84h0c.25-.66.98-1,1.64-.76l6.29,2.29c.62.23,1.32-.06,1.6-.66l3.65-7.78c.31-.66,0-1.45-.67-1.73l-35.12-14.67c-.85-.36-1.79.28-1.78,1.21Z"/>
      <path class="cls-1" d="M7.97,8.94h13.45l10.57,24.71,6.37-16.42-3.32-8.3h13.27l10.48,24.63,9.61-24.63h13.36l-21.83,54.14h-1.75l-12.92-30.21-12.49,30.21h-1.66L7.97,8.94Z"/>
      <path class="cls-1" d="M100.81,8.94h2.27l25.67,54.14h-13.8l-2.62-5.41h-20.69l-2.53,5.41h-13.8l25.5-54.14ZM107.97,48.5l-6.02-13.27h-.18l-6.11,13.27h12.31Z"/>
      <path class="cls-1" d="M135.74,22.04h-11.7v-11.35h36.5v11.35h-11.88v41.04h-12.92V22.04Z"/>
      <path class="cls-1" d="M208.31,10.69h21.92c11.26,0,18.6,6.81,18.6,16.68,0,9.17-4.63,14.32-12.4,16.24l14.15,19.47h-16.07l-13.36-19.56v19.56h-12.84V10.69ZM231.45,33.39c2.88,0,4.8-2.97,4.8-6.02s-2.27-5.76-5.15-5.76h-9.95v11.79h10.3Z"/>
      <path class="cls-1" d="M267.35,45.97c0,3.06,2.44,5.5,5.41,5.5,3.23,0,5.24-1.83,5.24-4.54,0-3.93-5.15-5.07-9.43-6.55-8.82-3.14-13.71-7.25-13.71-16.24s7.95-16.94,17.81-16.94c11.61,0,17.12,7.42,17.81,17.12h-12.05c0-2.97-1.83-5.42-5.41-5.42-2.79,0-5.5,1.66-5.5,5.07,0,3.93,4.8,4.63,9.26,5.94,9.34,2.79,13.71,8.03,13.71,16.24,0,9.26-7.86,16.94-17.73,16.94-11.44,0-17.9-7.68-17.9-17.11h12.49Z"/>
      <path class="cls-1" d="M299.14,10.69h12.84v52.39h-12.84V10.69Z"/>
      <path class="cls-1" d="M320.36,10.69h18.25c15.46,0,27.42,11.35,27.42,26.11,0,13.97-10.65,26.28-27.42,26.28h-18.25V10.69ZM338.35,51.38c8.21,0,14.5-5.76,14.5-14.58,0-8.12-5.5-14.49-14.5-14.49h-5.15v29.08h5.15Z"/>
    </g>
  </g>
</svg>