<?xml version="1.0" encoding="UTF-8"?>
<svg xmlns="http://www.w3.org/2000/svg" version="1.1" viewBox="0 0 595.28 841.89">
  <defs>
    <style>
      .cls-1 {
        fill: #053e44;
      }

      .cls-2 {
        fill: none;
        stroke: #053e44;
        stroke-miterlimit: 10;
        stroke-width: 2px;
      }
    </style>
  </defs>
  <!-- Generator: Adobe Illustrator 28.6.0, SVG Export Plug-In . SVG Version: 1.2.0 Build 709)  -->
  <g>
    <g id="Calque_1">
      <path class="cls-2" d="M82.3,335.63l36.21,35.07c.51.5,1.33.49,1.84,0l21.92-21.69c.51-.51.52-1.34.02-1.86l-9.13-9.36c-.52-.53-1.37-.53-1.89,0l-11.81,12.2c-.51.53-1.35.54-1.87.02l-7.24-7.11c-.52-.51-.53-1.34-.02-1.86l5.43-5.6c.38-.39.48-.97.25-1.46h0c-.3-.66-.01-1.44.64-1.74l6.22-2.9c.62-.29.91-1,.68-1.64l-2.99-8.29c-.25-.71-1.05-1.06-1.74-.77l-36.11,14.83c-.88.36-1.1,1.5-.42,2.17Z"/>
      <polygon class="cls-1" points="287.96 326.78 288.68 371.44 316.47 371.59 316.64 358.5 300.29 358.77 300.19 348.14 308.51 348.01 309.16 346.29 316.48 348.96 320.51 340.38 287.96 326.78"/>
      <polygon class="cls-1" points="463.06 326.78 463.78 371.44 491.58 371.59 491.74 358.5 475.39 358.77 475.29 348.14 483.62 348.01 484.26 346.29 491.58 348.96 495.61 340.38 463.06 326.78"/>
      <path class="cls-1" d="M152.77,325.42h11.47l9.01,21.08,5.44-14-2.83-7.08h11.32l8.94,21,8.19-21h11.39l-18.62,46.17h-1.49l-11.02-25.77-10.65,25.77h-1.41l-19.73-46.17Z"/>
      <path class="cls-1" d="M231.94,325.42h1.94l21.89,46.17h-11.77l-2.23-4.62h-17.65l-2.16,4.62h-11.77l21.74-46.17ZM238.05,359.15l-5.14-11.32h-.15l-5.21,11.32h10.5Z"/>
      <path class="cls-1" d="M261.73,336.59h-9.98v-9.68h31.13v9.68h-10.13v35h-11.02v-35Z"/>
      <path class="cls-1" d="M323.62,326.91h18.69c9.61,0,15.86,5.81,15.86,14.23,0,7.82-3.95,12.21-10.57,13.85l12.06,16.61h-13.7l-11.39-16.68v16.68h-10.95v-44.68ZM343.36,346.27c2.46,0,4.1-2.53,4.1-5.14s-1.94-4.92-4.39-4.92h-8.49v10.05h8.79Z"/>
      <path class="cls-1" d="M373.97,356.99c0,2.61,2.08,4.69,4.62,4.69,2.75,0,4.47-1.56,4.47-3.87,0-3.35-4.39-4.32-8.04-5.58-7.52-2.68-11.69-6.18-11.69-13.85s6.78-14.45,15.19-14.45c9.9,0,14.6,6.33,15.19,14.6h-10.28c0-2.53-1.56-4.62-4.62-4.62-2.38,0-4.69,1.42-4.69,4.32,0,3.35,4.1,3.95,7.89,5.06,7.97,2.38,11.69,6.85,11.69,13.85,0,7.9-6.7,14.45-15.12,14.45-9.76,0-15.27-6.55-15.27-14.59h10.65Z"/>
      <path class="cls-1" d="M401.08,326.91h10.95v44.68h-10.95v-44.68Z"/>
      <path class="cls-1" d="M419.18,326.91h15.56c13.18,0,23.38,9.68,23.38,22.27,0,11.92-9.08,22.42-23.38,22.42h-15.56v-44.68ZM434.52,361.61c7,0,12.36-4.92,12.36-12.44,0-6.93-4.69-12.36-12.36-12.36h-4.39v24.8h4.39Z"/>
    </g>
  </g>
</svg>