<?xml version="1.0" encoding="UTF-8"?>
<svg xmlns="http://www.w3.org/2000/svg" version="1.1" viewBox="0 0 433.97 78.81">
  <defs>
    <style>
      .cls-1 {
        fill: #053e44;
      }
    </style>
  </defs>
  <!-- Generator: Adobe Illustrator 28.6.0, SVG Export Plug-In . SVG Version: 1.2.0 Build 709)  -->
  <g>
    <g id="Calque_1">
      <g>
        <polygon class="cls-1" points="7.12 27.62 49.92 69.07 76.28 42.98 64.09 30.49 48.92 46.16 38.81 36.23 46.53 28.25 45.51 26.02 54.94 21.63 50.65 9.75 7.12 27.62"/>
        <polygon class="cls-1" points="220.63 25.21 221.33 68.92 248.54 69.07 248.7 56.26 232.7 56.52 232.6 46.11 240.75 45.98 241.38 44.3 248.55 46.91 252.49 38.52 220.63 25.21"/>
        <polygon class="cls-1" points="393.99 25.21 394.69 68.92 421.91 69.07 422.07 56.26 406.06 56.52 405.97 46.11 414.11 45.98 414.74 44.3 421.91 46.91 425.85 38.52 393.99 25.21"/>
        <path class="cls-1" d="M88.29,23.87h11.23l8.82,20.63,5.32-13.71-2.77-6.93h11.08l8.75,20.56,8.02-20.56h11.15l-18.22,45.2h-1.46l-10.79-25.22-10.42,25.22h-1.38l-19.32-45.2Z"/>
        <path class="cls-1" d="M165.79,23.87h1.9l21.43,45.2h-11.52l-2.19-4.52h-17.28l-2.11,4.52h-11.52l21.29-45.2ZM171.77,56.89l-5.03-11.08h-.15l-5.1,11.08h10.28Z"/>
        <path class="cls-1" d="M194.96,34.8h-9.77v-9.48h30.47v9.48h-9.91v34.26h-10.79v-34.26Z"/>
        <path class="cls-1" d="M255.54,25.33h18.3c9.4,0,15.53,5.69,15.53,13.93,0,7.65-3.86,11.95-10.35,13.56l11.81,16.26h-13.41l-11.15-16.33v16.33h-10.72V25.33ZM274.86,44.28c2.41,0,4.01-2.48,4.01-5.03s-1.89-4.81-4.3-4.81h-8.31v9.84h8.6Z"/>
        <path class="cls-1" d="M304.82,54.78c0,2.55,2.04,4.59,4.52,4.59,2.7,0,4.37-1.53,4.37-3.79,0-3.28-4.3-4.23-7.87-5.47-7.36-2.62-11.45-6.05-11.45-13.56s6.63-14.14,14.87-14.14c9.7,0,14.29,6.2,14.87,14.29h-10.06c0-2.48-1.53-4.52-4.52-4.52-2.33,0-4.59,1.39-4.59,4.23,0,3.28,4.01,3.86,7.73,4.96,7.8,2.33,11.45,6.71,11.45,13.56,0,7.73-6.56,14.14-14.8,14.14-9.55,0-14.94-6.41-14.94-14.29h10.42Z"/>
        <path class="cls-1" d="M331.36,25.33h10.72v43.74h-10.72V25.33Z"/>
        <path class="cls-1" d="M349.08,25.33h15.24c12.9,0,22.89,9.48,22.89,21.8,0,11.66-8.89,21.94-22.89,21.94h-15.24V25.33ZM364.1,59.3c6.85,0,12.1-4.81,12.1-12.17,0-6.78-4.59-12.1-12.1-12.1h-4.3v24.27h4.3Z"/>
      </g>
    </g>
  </g>
</svg>