<?xml version="1.0" encoding="UTF-8"?>
<svg xmlns="http://www.w3.org/2000/svg" version="1.1" viewBox="0 0 268.42 236.09">
  <defs>
    <style>
      .cls-1 {
        fill: #053e44;
      }
    </style>
  </defs>
  <!-- Generator: Adobe Illustrator 28.6.0, SVG Export Plug-In . SVG Version: 1.2.0 Build 709)  -->
  <g>
    <g id="Calque_1">
      <path class="cls-1" d="M7.71,78.15l152.75,147.91c2.17,2.1,5.63,2.08,7.78-.04l92.45-91.48c2.17-2.15,2.2-5.65.07-7.83l-38.5-39.46c-2.19-2.24-5.79-2.23-7.97.01l-49.82,51.45c-2.15,2.22-5.69,2.26-7.89.1l-30.53-29.98c-2.18-2.14-2.22-5.64-.1-7.83l22.89-23.64c1.59-1.64,2.01-4.09,1.06-6.18h0c-1.27-2.78-.06-6.06,2.71-7.35l26.25-12.23c2.61-1.22,3.86-4.22,2.88-6.93l-12.62-34.95c-1.07-2.98-4.41-4.46-7.34-3.25L9.47,69.02c-3.71,1.52-4.63,6.35-1.76,9.13Z"/>
    </g>
  </g>
</svg>